<?xml version="1.0" encoding="iso-8859-1"?>
<!-- Generator: Adobe Illustrator 16.0.0, SVG Export Plug-In . SVG Version: 6.00 Build 0)  -->
<!DOCTYPE svg PUBLIC "-//W3C//DTD SVG 1.1//EN" "http://www.w3.org/Graphics/SVG/1.1/DTD/svg11.dtd">
<svg version="1.1" id="Capa_1" xmlns="http://www.w3.org/2000/svg" xmlns:xlink="http://www.w3.org/1999/xlink" x="0px" y="0px"
	 width="88.541px" height="88.541px" viewBox="0 0 88.541 88.541" style="enable-background:new 0 0 88.541 88.541;"
	 xml:space="preserve">
<g>
	<g>
		<path d="M70.576,0h-52.61c-1.821,0-3.297,1.477-3.297,3.297v81.947c0,1.82,1.476,3.297,3.297,3.297h52.609
			c1.82,0,3.297-1.477,3.297-3.297V3.297C73.873,1.477,72.397,0,70.576,0z M67.278,81.947H21.263V6.595h46.015V81.947z"/>
		<path d="M50.188,53.628l0.566-0.051c4.266-0.5,7.585-4.134,7.585-8.529c0-5.868-13.207-17.812-13.207-17.812
			c-0.504-0.559-1.221-0.559-1.725,0c0,0-13.207,11.944-13.207,17.812c0,4.396,3.32,8.029,7.585,8.529l0.567,0.051
			c0.146,0.009,0.291,0.011,0.439,0.011c1.227,0,2.408-0.256,3.492-0.736c0.387,5.275-8.202,6.465-8.014,6.381v2.443h19.999v-2.443
			c0.188,0.084-8.4-1.104-8.015-6.381c1.084,0.48,2.267,0.736,3.492,0.736C49.897,53.639,50.042,53.637,50.188,53.628z"/>
	</g>
</g>
<g>
</g>
<g>
</g>
<g>
</g>
<g>
</g>
<g>
</g>
<g>
</g>
<g>
</g>
<g>
</g>
<g>
</g>
<g>
</g>
<g>
</g>
<g>
</g>
<g>
</g>
<g>
</g>
<g>
</g>
</svg>
